<?xml version="1.0" encoding="utf-8"?>
<!-- Generator: Adobe Illustrator 24.3.0, SVG Export Plug-In . SVG Version: 6.00 Build 0)  -->
<svg version="1.1" id="Capa_1" xmlns="http://www.w3.org/2000/svg" xmlns:xlink="http://www.w3.org/1999/xlink" x="0px" y="0px"
	 viewBox="0 0 48 48" style="enable-background:new 0 0 48 48;" xml:space="preserve">
<style type="text/css">
	.st0{fill:#07282C;}
</style>
<path class="st0" d="M24,31.5c2.4,0,4.4-0.8,6-2.5c1.7-1.7,2.5-3.7,2.5-6c0-2.4-0.8-4.4-2.5-6c-1.7-1.7-3.7-2.5-6-2.5
	c-2.4,0-4.4,0.8-6,2.5c-1.6,1.7-2.5,3.7-2.5,6c0,2.4,0.8,4.4,2.5,6C19.6,30.7,21.6,31.5,24,31.5z M24,28.6c-1.6,0-2.9-0.5-4-1.6
	c-1.1-1.1-1.6-2.4-1.6-4c0-1.6,0.5-2.9,1.6-4c1.1-1.1,2.4-1.6,4-1.6c1.6,0,2.9,0.5,4,1.6c1.1,1.1,1.6,2.4,1.6,4c0,1.6-0.5,2.9-1.6,4
	C26.9,28.1,25.5,28.6,24,28.6z M24,38c-4.9,0-9.3-1.4-13.2-4.2S3.9,27.5,2,23c1.9-4.5,4.9-8.1,8.8-10.9S19.1,8,24,8
	s9.3,1.4,13.2,4.2S44.1,18.5,46,23c-1.9,4.5-4.9,8.1-8.8,10.8S28.9,38,24,38z M24,35c4,0,7.8-1.1,11.1-3.3s6-5.1,7.7-8.7
	c-1.8-3.6-4.3-6.5-7.7-8.7C31.8,12.1,28,11,24,11c-4,0-7.8,1.1-11.1,3.3s-6,5.1-7.8,8.7c1.8,3.6,4.4,6.5,7.8,8.7
	C16.2,33.9,20,35,24,35z"/>
</svg>
