<?xml version="1.0" encoding="utf-8"?>
<!-- Generator: Adobe Illustrator 24.2.3, SVG Export Plug-In . SVG Version: 6.00 Build 0)  -->
<svg version="1.1" id="Capa_1" xmlns="http://www.w3.org/2000/svg" xmlns:xlink="http://www.w3.org/1999/xlink" x="0px" y="0px"
	 viewBox="0 0 448 512" style="enable-background:new 0 0 448 512;" xml:space="preserve">
<style type="text/css">
	.st0{fill:#07282C;}
</style>
<path class="st0" d="M439.1,453.1l-142-69.1l142-69.1c7.9-4,11.1-13.6,7.1-21.5L432,264.9c-4-7.9-13.6-11.1-21.5-7.2L224,348.4
	L37.5,257.7c-7.9-3.9-17.5-0.8-21.5,7.2L1.7,293.5c-4,7.9-0.8,17.5,7.2,21.5l142,69.1l-142,69.1c-7.9,4-11.1,13.6-7.2,21.5L16,503.2
	c4,7.9,13.6,11.1,21.5,7.1L224,419.6l186.5,90.7c7.9,4,17.5,0.8,21.5-7.1l14.3-28.6C450.3,466.6,447,457,439.1,453.1z M150,237.3
	l-5.5,25.9c-2.7,12.6,5.4,24.9,16.4,24.9H287c11,0,19.1-12.2,16.5-24.9l-5.5-25.9c41.8-22.4,70-62.8,70-109.3
	C368,57.3,303.5,0,224,0S80,57.3,80,128C80,174.5,108.2,214.9,150,237.3z M280,112c17.6,0,32,14.3,32,32s-14.4,32-32,32
	s-32-14.4-32-32S262.4,112,280,112z M168,112c17.6,0,32,14.3,32,32s-14.4,32-32,32s-32-14.4-32-32S150.4,112,168,112z"/>
</svg>
