<?xml version="1.0" encoding="utf-8"?>
<!-- Generator: Adobe Illustrator 24.2.3, SVG Export Plug-In . SVG Version: 6.00 Build 0)  -->
<svg version="1.1" id="Capa_1" xmlns="http://www.w3.org/2000/svg" xmlns:xlink="http://www.w3.org/1999/xlink" x="0px" y="0px"
	 viewBox="0 0 448 512" style="enable-background:new 0 0 448 512;" xml:space="preserve">
<style type="text/css">
	.st0{fill:#07282C;}
</style>
<path class="st0" d="M448,348.1V80c0-26.5-21.5-48-48-48H48C21.5,32,0,53.5,0,80v352c0,26.5,21.5,48,48,48h268.1
	c12.7,0,24.9-5.1,33.9-14.1l83.9-83.9C442.9,373,448,360.8,448,348.1z M320,428.1V352h76.1L320,428.1z M400,80v224H296
	c-13.3,0-24,10.7-24,24v104H48V80H400z"/>
</svg>
