<?xml version="1.0" encoding="utf-8"?>
<!-- Generator: Adobe Illustrator 24.2.3, SVG Export Plug-In . SVG Version: 6.00 Build 0)  -->
<svg version="1.1" id="Capa_1" xmlns="http://www.w3.org/2000/svg" xmlns:xlink="http://www.w3.org/1999/xlink" x="0px" y="0px"
	 viewBox="0 0 512 512" style="enable-background:new 0 0 512 512;" xml:space="preserve">
<style type="text/css">
	.st0{fill:#FFFFFF;}
</style>
<path class="st0" d="M290.6,192c-20.2,0-106.8,2-162.6,86v-86c0-52.9-43.1-96-96-96c-17.7,0-32,14.3-32,32s14.3,32,32,32
	c17.6,0,32,14.4,32,32v256c0,35.3,28.7,64,64,64h176c8.8,0,16-7.2,16-16v-16c0-17.7-14.3-32-32-32h-32l128-96v144
	c0,8.8,7.2,16,16,16h32c8.8,0,16-7.2,16-16V289.9c-10.3,2.7-20.9,4.5-32,4.5C354.2,294.4,302.5,250.3,290.6,192z M448,96h-64l-64-64
	v134.4c0,53,43,96,96,96s96-43,96-96V32L448,96z M376,176c-8.8,0-16-7.2-16-16s7.2-16,16-16s16,7.2,16,16S384.8,176,376,176z
	 M456,176c-8.8,0-16-7.2-16-16s7.2-16,16-16s16,7.2,16,16S464.8,176,456,176z"/>
</svg>
