<?xml version="1.0" encoding="utf-8"?>
<!-- Generator: Adobe Illustrator 24.2.3, SVG Export Plug-In . SVG Version: 6.00 Build 0)  -->
<svg version="1.1" id="Capa_1" xmlns="http://www.w3.org/2000/svg" xmlns:xlink="http://www.w3.org/1999/xlink" x="0px" y="0px"
	 viewBox="0 0 512 512" style="enable-background:new 0 0 512 512;" xml:space="preserve">
<style type="text/css">
	.st0{fill:#FFFFFF;}
</style>
<path class="st0" d="M510.9,152.3l-5.9-14.5c-3.3-8-12.6-11.9-20.8-8.7L456,140.6v-29c0-8.6-7.2-15.6-16-15.6h-16
	c-8.8,0-16,7-16,15.6v46.9c0,0.5,0.3,1,0.3,1.5l-56.4,23c-5.9-10-13.3-18.9-22-26.6c13.6-16.6,22-37.4,22-60.5c0-53-43-96-96-96
	s-96,43-96,96c0,23.1,8.5,43.9,22,60.5c-8.7,7.7-16,16.6-22,26.6l-56.4-23c0.1-0.5,0.3-1,0.3-1.5v-46.9C104,103,96.8,96,88,96H72
	c-8.8,0-16,7-16,15.6v29l-28.1-11.5c-8.2-3.2-17.5,0.7-20.8,8.7l-5.9,14.5c-3.3,8,0.7,17.1,8.9,20.3l135.2,55.2
	c-0.4,4-1.2,8-1.2,12.2c0,10.1,1.7,19.6,4.2,28.9C120.9,296.4,104,334.2,104,376c0,54,28.4,100.9,70.8,127.8
	c9.3,5.9,20.3,8.2,31.3,8.2h99.2c13.3,0,26.3-4.1,37.2-11.7c46.5-32.3,74.4-89.4,62.9-152.6c-5.5-30.2-20.5-57.6-41.6-79
	c2.5-9.2,4.2-18.7,4.2-28.7c0-4.2-0.8-8.1-1.2-12.2L502,172.6C510.1,169.5,514.1,160.4,510.9,152.3z M224,96c-8.8,0-16-7.2-16-16
	s7.2-16,16-16s16,7.2,16,16S232.8,96,224,96z M256,368c-8.8,0-16-7.2-16-16s7.2-16,16-16c8.8,0,16,7.2,16,16S264.8,368,256,368z
	 M256,304c-8.8,0-16-7.2-16-16s7.2-16,16-16c8.8,0,16,7.2,16,16S264.8,304,256,304z M256,240c-8.8,0-16-7.2-16-16s7.2-16,16-16
	c8.8,0,16,7.2,16,16S264.8,240,256,240z M256,152c0,0-16-23.2-16-32s7.2-16,16-16c8.8,0,16,7.2,16,16S256,152,256,152z M288,96
	c-8.8,0-16-7.2-16-16s7.2-16,16-16s16,7.2,16,16S296.8,96,288,96z"/>
</svg>
